<svg xmlns="http://www.w3.org/2000/svg" version="1.1" xmlns:xlink="http://www.w3.org/1999/xlink" xmlns:svgjs="http://svgjs.dev/svgjs" width="2000" height="272" viewBox="0 0 2000 272"><g transform="matrix(1,0,0,1,-1.2121212121212466,0.7812183427247135)"><svg viewBox="0 0 396 54" data-background-color="#010536" preserveAspectRatio="xMidYMid meet" height="272" width="2000" xmlns="http://www.w3.org/2000/svg" xmlns:xlink="http://www.w3.org/1999/xlink"><g id="tight-bounds" transform="matrix(1,0,0,1,0.2400000000000091,-0.1550948180409364)"><svg viewBox="0 0 395.52 54.310189636081894" height="54.310189636081894" width="395.52"><g><svg viewBox="0 0 527.763901875194 72.4690473147257" height="54.310189636081894" width="395.52"><g><rect width="4.728895423226333" height="62.925366698748796" x="407.8993073906448" y="4.771840307988452" fill="#fbfbf8" opacity="1" stroke-width="0" stroke="transparent" fill-opacity="1" class="rect-yte-0" data-fill-palette-color="primary" rx="1%" id="yte-0" data-palette-color="#fbfbf8"></rect></g><g transform="matrix(1,0,0,1,0,10.015620866217517)"><svg viewBox="0 0 395.52 52.437805582290665" height="52.437805582290665" width="395.52"><g id="textblocktransform"><svg viewBox="0 0 395.52 52.437805582290665" height="52.437805582290665" width="395.52" id="textblock"><g><svg viewBox="0 0 395.52 52.437805582290665" height="52.437805582290665" width="395.52"><g transform="matrix(1,0,0,1,0,0)"><svg width="395.52" viewBox="0.9 -39.65 304.37 40.36" height="52.437805582290665" data-palette-color="#fbfbf8"><path d="M15.65-20.19L15.65 0 5.1 0 5.1-20.19 0.9-20.19 0.9-26.34 5.05-26.34Q5.05-29.35 5.86-31.58 6.67-33.81 8.15-35.3 9.64-36.79 11.76-37.54 13.87-38.28 16.5-38.28L16.5-38.28Q18.65-38.28 20.48-37.82 22.31-37.35 23.85-36.72L23.85-36.72 23.07-30.44Q21.66-30.79 20.72-31.02 19.78-31.25 18.9-31.25L18.9-31.25Q17.77-31.25 17.13-30.83 16.48-30.42 16.15-29.74 15.82-29.05 15.73-28.16 15.65-27.27 15.65-26.34L15.65-26.34 23.02-26.34Q22.68-24.73 22.49-23.24 22.29-21.75 22.29-20.19L22.29-20.19 15.65-20.19ZM27.37 0L27.37-26.34 37.91-26.34 37.91 0 27.37 0ZM32.66-31.76L32.66-31.76Q31.27-31.76 30.05-32.06 28.83-32.35 27.94-32.86 27.05-33.37 26.52-34.11 26-34.84 26-35.72L26-35.72Q26-36.69 26.51-37.44 27.02-38.18 27.93-38.67 28.83-39.16 30.05-39.4 31.27-39.65 32.69-39.65L32.69-39.65Q34.1-39.65 35.34-39.4 36.57-39.16 37.47-38.67 38.38-38.18 38.89-37.44 39.4-36.69 39.4-35.72L39.4-35.72Q39.4-34.84 38.88-34.11 38.35-33.37 37.45-32.86 36.55-32.35 35.31-32.06 34.08-31.76 32.66-31.76ZM45.8 0L45.8-37.5 56.34-37.5 56.34 0 45.8 0ZM63.91 0L63.91-26.34 74.58-26.34Q74.36-25.63 74.21-25.04 74.06-24.44 73.99-23.85 73.92-23.27 73.88-22.67 73.85-22.07 73.85-21.39L73.85-21.39Q74.5-22.49 75.55-23.51 76.6-24.54 77.91-25.31 79.22-26.07 80.69-26.54 82.17-27 83.68-27L83.68-27Q84.88-27 86.04-26.66 87.2-26.32 88.25-25.63 89.3-24.95 90.18-23.95 91.06-22.95 91.69-21.61L91.69-21.61Q92.45-22.78 93.66-23.77 94.87-24.76 96.33-25.48 97.8-26.2 99.44-26.6 101.09-27 102.73-27L102.73-27Q105.36-27 107.21-26.25 109.05-25.49 110.19-24.1 111.32-22.71 111.83-20.75 112.35-18.8 112.35-16.43L112.35-16.43 112.35 0 101.8 0 101.8-14.89Q101.8-15.6 101.64-16.52 101.48-17.43 101.04-18.25 100.6-19.07 99.83-19.63 99.06-20.19 97.82-20.19L97.82-20.19Q96.97-20.19 96.21-19.78 95.45-19.36 94.87-18.68 94.28-17.99 93.94-17.11 93.6-16.24 93.6-15.31L93.6-15.31 93.6 0 83.05 0 83.05-14.89Q83.05-15.89 82.87-16.85 82.68-17.8 82.24-18.54 81.8-19.29 81.05-19.74 80.29-20.19 79.14-20.19L79.14-20.19Q78.34-20.19 77.49-19.89 76.65-19.58 75.98-19.06 75.31-18.53 74.88-17.8 74.46-17.07 74.46-16.21L74.46-16.21 74.46 0 63.91 0ZM148.99-20.19L148.99 0 138.44 0 138.44-20.19 134.24-20.19 134.24-26.34 138.39-26.34Q138.39-29.35 139.2-31.58 140-33.81 141.49-35.3 142.98-36.79 145.09-37.54 147.2-38.28 149.84-38.28L149.84-38.28Q151.99-38.28 153.82-37.82 155.65-37.35 157.19-36.72L157.19-36.72 156.41-30.44Q154.99-30.79 154.05-31.02 153.11-31.25 152.23-31.25L152.23-31.25Q151.11-31.25 150.46-30.83 149.82-30.42 149.49-29.74 149.16-29.05 149.07-28.16 148.99-27.27 148.99-26.34L148.99-26.34 156.36-26.34Q156.02-24.73 155.82-23.24 155.63-21.75 155.63-20.19L155.63-20.19 148.99-20.19ZM184.97-7.98L184.97-1.05Q182.68-0.29 180.01 0.21 177.35 0.71 174.47 0.71L174.47 0.71Q171.32 0.71 168.47-0.12 165.61-0.95 163.44-2.71 161.26-4.47 159.98-7.17 158.7-9.86 158.7-13.6L158.7-13.6Q158.7-15.72 159.36-17.54 160.02-19.36 161.15-20.85 162.29-22.34 163.82-23.49 165.34-24.63 167.09-25.42 168.83-26.2 170.69-26.6 172.54-27 174.33-27L174.33-27Q177.13-27 179.28-26.38 181.43-25.76 182.86-24.71 184.29-23.66 185.02-22.27 185.75-20.87 185.75-19.31L185.75-19.31Q185.75-17.41 185.1-16.06 184.46-14.72 183.37-13.81 182.28-12.89 180.86-12.37 179.43-11.84 177.84-11.56 176.25-11.28 174.61-11.21 172.96-11.13 171.47-11.13L171.47-11.13Q170.96-11.13 170.48-11.15 170-11.16 169.54-11.16L169.54-11.16Q169.74-9.77 170.31-8.81 170.88-7.86 171.75-7.26 172.62-6.67 173.75-6.41 174.89-6.15 176.18-6.15L176.18-6.15Q177.16-6.15 178.27-6.3 179.38-6.45 180.51-6.7 181.65-6.96 182.79-7.29 183.92-7.62 184.97-7.98L184.97-7.98ZM169.32-14.92L169.32-14.92Q169.91-14.94 170.82-14.99 171.74-15.04 172.76-15.16 173.79-15.28 174.81-15.5 175.84-15.72 176.67-16.06 177.5-16.41 178.01-16.92 178.53-17.43 178.53-18.16L178.53-18.16Q178.53-19.41 177.54-20.15 176.55-20.9 174.79-20.9L174.79-20.9Q173.98-20.9 173.06-20.67 172.13-20.43 171.32-19.78 170.52-19.12 169.96-17.94 169.39-16.77 169.32-14.92ZM192.22 0L192.22-26.34 202.25-26.34Q202.2-25.71 202.18-24.94 202.16-24.17 202.16-23.33 202.16-22.49 202.16-21.63 202.16-20.78 202.16-20L202.16-20Q202.64-21.19 203.42-22.45 204.21-23.71 205.27-24.71 206.33-25.71 207.69-26.35 209.04-27 210.72-27L210.72-27Q211.04-27 211.42-26.97 211.8-26.93 212.17-26.86 212.53-26.78 212.86-26.67 213.19-26.56 213.41-26.42L213.41-26.42 212.56-16.36Q211.46-16.77 210.24-16.98 209.02-17.19 208.11-17.19L208.11-17.19Q206.87-17.19 205.93-16.88 204.99-16.58 204.33-16.09 203.67-15.6 203.29-15.01 202.91-14.43 202.77-13.87L202.77-13.87 202.77 0 192.22 0ZM223.44 0L214.75-26.34 226.59-26.34 231.16-6.62 236.26-26.34 245.22-26.34 236.8 0 223.44 0ZM263.09 0.71L263.09 0.71Q260.21 0.71 257.96 0.17 255.71-0.37 254.03-1.32 252.35-2.27 251.16-3.58 249.98-4.88 249.25-6.42 248.51-7.96 248.18-9.67 247.85-11.38 247.85-13.13L247.85-13.13Q247.85-14.87 248.18-16.56 248.51-18.26 249.25-19.81 249.98-21.36 251.15-22.67 252.32-23.97 254.02-24.94 255.71-25.9 257.96-26.45 260.21-27 263.09-27L263.09-27Q265.97-27 268.21-26.45 270.46-25.9 272.16-24.94 273.85-23.97 275.03-22.67 276.2-21.36 276.93-19.81 277.66-18.26 277.99-16.56 278.32-14.87 278.32-13.13L278.32-13.13Q278.32-11.38 277.99-9.67 277.66-7.96 276.93-6.42 276.2-4.88 275.01-3.58 273.83-2.27 272.15-1.32 270.46-0.37 268.21 0.17 265.97 0.71 263.09 0.71ZM258.4-13.13L258.4-13.13Q258.4-11.82 258.64-10.56 258.89-9.3 259.44-8.31 259.99-7.32 260.88-6.73 261.77-6.13 263.09-6.13L263.09-6.13Q264.41-6.13 265.3-6.73 266.19-7.32 266.74-8.31 267.29-9.3 267.53-10.56 267.78-11.82 267.78-13.13L267.78-13.13Q267.78-14.45 267.53-15.71 267.29-16.97 266.74-17.96 266.19-18.95 265.3-19.56 264.41-20.17 263.09-20.17L263.09-20.17Q261.77-20.17 260.88-19.56 259.99-18.95 259.44-17.96 258.89-16.97 258.64-15.71 258.4-14.45 258.4-13.13ZM284.08 0L284.08-26.34 294.12-26.34Q294.07-25.71 294.04-24.94 294.02-24.17 294.02-23.33 294.02-22.49 294.02-21.63 294.02-20.78 294.02-20L294.02-20Q294.51-21.19 295.29-22.45 296.07-23.71 297.13-24.71 298.19-25.71 299.55-26.35 300.9-27 302.59-27L302.59-27Q302.9-27 303.28-26.97 303.66-26.93 304.03-26.86 304.39-26.78 304.72-26.67 305.05-26.56 305.27-26.42L305.27-26.42 304.42-16.36Q303.32-16.77 302.1-16.98 300.88-17.19 299.98-17.19L299.98-17.19Q298.73-17.19 297.79-16.88 296.85-16.58 296.19-16.09 295.53-15.6 295.15-15.01 294.77-14.43 294.63-13.87L294.63-13.87 294.63 0 284.08 0Z" opacity="1" transform="matrix(1,0,0,1,0,0)" fill="#fbfbf8" class="wordmark-text-0" data-fill-palette-color="primary" id="text-0"></path></svg></g></svg></g></svg></g></svg></g><g transform="matrix(1,0,0,1,425.007510204516,0)"><svg viewBox="0 0 102.75639167067811 72.4690473147257" height="72.4690473147257" width="102.75639167067811"><g><svg xmlns="http://www.w3.org/2000/svg" xmlns:xlink="http://www.w3.org/1999/xlink" version="1.1" x="0" y="0" viewBox="0.5 10.9 71.03853870664699 50.1" enable-background="new 0 0 72 72" xml:space="preserve" height="72.4690473147257" width="102.75639167067811" class="icon-icon-0" data-fill-palette-color="accent" id="icon-0"><g fill="#ffff00" data-fill-palette-color="accent"><path fill="#ffff00" d="M70.2 10.9H22.8C22.2 10.9 21.7 11.3 21.5 11.9L8.8 59.4C8.6 60.2 9.2 61 10.1 61H57.5C58.1 61 58.6 60.6 58.8 60L71.5 12.5C71.7 11.7 71.1 10.9 70.2 10.9M19.6 53.1L18.6 56.8C18.4 57.4 17.9 57.8 17.3 57.8H13.7C12.8 57.8 12.2 57 12.4 56.2L13.4 52.5C13.6 51.9 14.1 51.5 14.7 51.5H18.3C19.2 51.4 19.9 52.2 19.6 53.1M35.2 18.9L36.2 15.2C36.4 14.6 36.9 14.2 37.5 14.2H41.1C42 14.2 42.6 15 42.4 15.8L41.4 19.5C41.2 20.1 40.7 20.5 40.1 20.5H36.5C35.6 20.6 34.9 19.8 35.2 18.9M22.4 18.9L23.4 15.2C23.6 14.6 24.1 14.2 24.7 14.2H28.3C29.2 14.2 29.8 15 29.6 15.8L28.6 19.5C28.4 20.1 27.9 20.5 27.3 20.5H23.7C22.8 20.6 22.2 19.8 22.4 18.9M32.4 53.1L31.4 56.8C31.2 57.4 30.7 57.8 30.1 57.8H26.5C25.6 57.8 25 57 25.2 56.2L26.2 52.5C26.4 51.9 26.9 51.5 27.5 51.5H31.1C32 51.4 32.6 52.2 32.4 53.1M45.1 53.1L44.1 56.8C43.9 57.4 43.4 57.8 42.8 57.8H39.2C38.3 57.8 37.7 57 37.9 56.2L38.9 52.5C39.1 51.9 39.6 51.5 40.2 51.5H43.8C44.7 51.4 45.3 52.2 45.1 53.1M45.6 37.2L33.9 46.5C32.5 47.6 30.9 46.8 31.3 45.3L36.3 26.8C36.7 25.3 38.8 24.5 39.5 25.6L46.3 34.9C46.8 35.5 46.5 36.5 45.6 37.2M47.9 18.9L48.9 15.2C49.1 14.6 49.6 14.2 50.2 14.2H53.8C54.7 14.2 55.3 15 55.1 15.8L54.1 19.5C53.9 20.1 53.4 20.5 52.8 20.5H49.2C48.3 20.6 47.6 19.8 47.9 18.9M57.8 53.1L56.8 56.8C56.6 57.4 56.1 57.8 55.5 57.8H51.9C51 57.8 50.4 57 50.6 56.2L51.6 52.5C51.8 51.9 52.3 51.5 52.9 51.5H56.5C57.4 51.4 58 52.2 57.8 53.1M67.8 15.9L66.8 19.6C66.6 20.2 66.1 20.6 65.5 20.6H61.9C61 20.6 60.4 19.8 60.6 19L61.6 15.3C61.8 14.7 62.3 14.3 62.9 14.3H66.5C67.4 14.2 68 15 67.8 15.9" data-fill-palette-color="accent"></path><path fill="#ffff00" d="M3.2 24.1H12.6C13.6 24.1 14.3 23.3 14.3 22.4 14.3 21.4 13.5 20.7 12.6 20.7H3.2C2.2 20.7 1.5 21.5 1.5 22.4 1.5 23.4 2.3 24.1 3.2 24.1" data-fill-palette-color="accent"></path><path fill="#ffff00" d="M2.2 33.2H9.6C10.6 33.2 11.3 32.4 11.3 31.5 11.3 30.5 10.5 29.8 9.6 29.8H2.2C1.2 29.8 0.5 30.6 0.5 31.5S1.3 33.2 2.2 33.2" data-fill-palette-color="accent"></path><path fill="#ffff00" d="M8.4 38.8H3.2C2.2 38.8 1.5 39.6 1.5 40.5 1.5 41.5 2.3 42.2 3.2 42.2H8.4C9.4 42.2 10.1 41.4 10.1 40.5S9.3 38.8 8.4 38.8" data-fill-palette-color="accent"></path><path fill="#ffff00" d="M5 47.9H2.2C1.2 47.9 0.5 48.7 0.5 49.6 0.5 50.6 1.3 51.3 2.2 51.3H5C6 51.3 6.7 50.5 6.7 49.6 6.7 48.6 6 47.9 5 47.9" data-fill-palette-color="accent"></path></g></svg></g></svg></g></svg></g><defs></defs></svg><rect width="395.52" height="54.310189636081894" fill="none" stroke="none" visibility="hidden"></rect></g></svg></g></svg>